<svg id="Capa_1" enable-background="new 0 0 511.998 511.998" height="512" viewBox="0 0 511.998 511.998" width="512" xmlns="http://www.w3.org/2000/svg"><g><g><path d="m297.883 185.95-287.187 287.187c-5.191 5.191-5.191 13.609 0 18.8l8.58 8.58c5.191 5.191 13.608 5.191 18.8 0l287.188-287.187z" fill="#928392"/><path d="m14.759 496 296.587-296.587-13.463-13.463-287.187 287.187c-5.191 5.191-5.191 13.609 0 18.8z" fill="#7a6d79"/><path d="m357.365 147.434-16.05-4.989-43.71 43.784 27.38 27.38 43.811-43.885-4.898-15.756c-.969-3.121-3.413-5.565-6.533-6.534z" fill="#fbc700"/><path d="m361.135 149.625c-1.068-.984-2.343-1.748-3.77-2.191l-16.05-4.99-43.71 43.784 13.463 13.463z" fill="#ffa812"/><path d="m476.896 212.656c-6.458-3.303-11.733-8.587-15.021-15.053-.715-1.405-2.148-2.297-3.724-2.297s-3.01.892-3.724 2.297c-3.288 6.466-8.563 11.75-15.021 15.053-1.4.716-2.288 2.147-2.288 3.719v.102c0 1.556.861 2.991 2.246 3.698 6.436 3.283 11.698 8.532 14.997 14.959.708 1.38 2.141 2.236 3.693 2.236h.194c1.552 0 2.985-.856 3.693-2.236 3.298-6.427 8.56-11.677 14.996-14.959 1.386-.707 2.246-2.142 2.246-3.698v-.103c.001-1.57-.887-3.002-2.287-3.718z" fill="#ffe02f"/><path d="m455.614 220.176c-1.386-.707-2.246-2.142-2.246-3.698v-.103c0-1.572.888-3.003 2.288-3.719 4.082-2.088 7.687-4.971 10.62-8.44-1.708-2.019-3.191-4.234-4.401-6.614-.715-1.405-2.148-2.297-3.724-2.297s-3.01.892-3.724 2.297c-3.288 6.466-8.563 11.75-15.021 15.053-1.4.716-2.288 2.147-2.288 3.719v.103c0 1.556.86 2.991 2.246 3.698 6.437 3.283 11.698 8.532 14.997 14.959.708 1.38 2.142 2.236 3.693 2.236h.195c1.552 0 2.985-.856 3.693-2.236 1.197-2.332 2.659-4.503 4.335-6.487-2.944-3.483-6.561-6.379-10.663-8.471z" fill="#fbc700"/><path d="m501.808 146.821-33.681-45.133c-1.954-2.619-2.495-6.032-1.446-9.126l18.085-53.332c2.643-7.793-4.798-15.233-12.591-12.591l-53.332 18.085c-3.095 1.049-6.507.509-9.126-1.446l-45.132-33.68c-6.595-4.921-15.97-.145-15.865 8.084l.72 56.31c.042 3.267-1.527 6.346-4.195 8.233l-45.979 32.516c-6.719 4.752-5.072 15.144 2.786 17.587l53.777 16.716c3.12.97 5.564 3.413 6.534 6.534l16.716 53.777c2.443 7.858 12.835 9.504 17.587 2.786l32.516-45.979c1.886-2.668 4.965-4.237 8.233-4.195l56.31.72c8.227.104 13.004-9.271 8.083-15.866z" fill="#ffe02f"/><g><path d="m409.51 150.17c-.97-3.121-3.414-5.564-6.534-6.534l-53.776-16.716c-7.858-2.443-9.504-12.835-2.786-17.587l45.979-32.516c2.668-1.886 4.237-4.965 4.195-8.233l-.453-35.442-31.549-23.544c-6.595-4.921-15.97-.145-15.865 8.083l.72 56.31c.042 3.267-1.527 6.346-4.195 8.233l-45.979 32.516c-6.719 4.752-5.073 15.144 2.786 17.587l53.776 16.716c3.12.97 5.564 3.413 6.534 6.534l16.716 53.777c2.443 7.858 12.835 9.504 17.587 2.786l22.304-31.539z" fill="#fbc700"/></g></g><g><path d="m376.898 245.767c-4.143 0-7.5 3.358-7.5 7.5v4.111h-4.111c-4.143 0-7.5 3.358-7.5 7.5s3.357 7.5 7.5 7.5h4.111v4.111c0 4.142 3.357 7.5 7.5 7.5s7.5-3.358 7.5-7.5v-4.111h4.111c4.143 0 7.5-3.358 7.5-7.5s-3.357-7.5-7.5-7.5h-4.111v-4.111c0-4.142-3.357-7.5-7.5-7.5z"/><path d="m295.755 83.412c4.143 0 7.5-3.358 7.5-7.5v-10.118h10.118c4.143 0 7.5-3.358 7.5-7.5s-3.357-7.5-7.5-7.5h-10.118v-10.119c0-4.142-3.357-7.5-7.5-7.5s-7.5 3.358-7.5 7.5v10.118h-10.118c-4.143 0-7.5 3.358-7.5 7.5s3.357 7.5 7.5 7.5h10.118v10.118c0 4.143 3.358 7.501 7.5 7.501z"/><path d="m469.302 238.559c2.563-4.995 6.729-9.15 11.731-11.702 8.427-4.3 8.486-16.521-.034-20.878h.001c-5.022-2.569-9.196-6.751-11.751-11.774-4.331-8.523-16.481-8.527-20.82-.002-2.555 5.024-6.729 9.206-11.751 11.776-8.527 4.361-8.455 16.585-.033 20.878 5.001 2.551 9.167 6.707 11.731 11.705 4.321 8.41 16.598 8.425 20.926-.003zm-20.96-22.132c4.079-2.846 7.65-6.415 10.497-10.49 2.847 4.076 6.418 7.645 10.496 10.49-4.078 2.847-7.65 6.42-10.497 10.498-2.845-4.078-6.418-7.65-10.496-10.498z"/><path d="m14.661 505.82c8.107 8.107 21.3 8.108 29.407 0l136.089-136.089c2.929-2.929 2.929-7.678 0-10.606-2.93-2.929-7.678-2.929-10.607 0l-136.09 136.089c-2.26 2.259-5.937 2.257-8.192 0l-8.58-8.58c-2.26-2.259-2.26-5.935 0-8.194l281.604-281.605 16.774 16.774-120.769 120.768c-2.929 2.929-2.929 7.678 0 10.606s7.677 2.93 10.607 0c4.448-4.448 156.816-156.816 159.566-159.566l8.133 26.163c4.288 13.795 22.541 16.67 30.871 4.891l32.517-45.979c.463-.653 1.21-1.05 2.015-1.026l56.31.721c.077.001.152.001.229.001 14.292 0 22.555-16.339 13.962-27.853l-22.329-29.921c-2.477-3.32-7.178-4.003-10.496-1.525-3.32 2.478-4.003 7.177-1.525 10.497l22.329 29.921c.785 1.052.474 2.052.218 2.554-.257.503-.859 1.379-2.195 1.326l-56.312-.721c-.073-.001-.146-.001-.22-.001-5.654 0-10.962 2.743-14.23 7.366l-32.517 45.979c-.758 1.072-1.807 1.084-2.362.996-.557-.088-1.549-.423-1.938-1.678-1.888-6.073-14.979-48.187-16.717-53.775-1.696-5.459-5.98-9.764-11.469-11.471-18.17-5.648-31.863-9.904-53.776-16.716-1.255-.39-1.59-1.382-1.679-1.939-.088-.557-.076-1.604.996-2.362l45.979-32.516c4.685-3.313 7.438-8.716 7.363-14.453l-.72-56.31c-.017-1.314.824-1.939 1.326-2.195.503-.255 1.503-.567 2.555.218l45.132 33.681c4.599 3.431 10.587 4.379 16.021 2.537l53.331-18.085c1.246-.421 2.1.185 2.497.583.399.398 1.005 1.253.583 2.497l-14.47 42.669c-1.33 3.923.771 8.181 4.694 9.511 3.921 1.332 8.18-.771 9.511-4.694l14.47-42.67c4.636-13.67-8.433-26.741-22.102-22.101l-53.33 18.084c-.758.257-1.594.125-2.234-.353l-45.133-33.68c-11.571-8.637-28.033-.245-27.85 14.19l.72 56.311c.01.8-.373 1.552-1.025 2.014l-45.98 32.516c-11.789 8.337-8.895 26.587 4.891 30.872l25.87 8.041c-.002.002-33.395 33.394-33.395 33.394l-286.908 286.908c-8.107 8.107-8.107 21.299 0 29.407zm294.238-319.592 33.667-33.667 11.724 3.645h.001c.748.232 1.355.821 1.597 1.598l3.553 11.43-33.768 33.767z"/></g></g></svg>